{"title":"Yoddha The Warrior  2014 Punjabi DVDSCR Rip GOPI SAHI PDR","uid":11373492,"size":726938411,"categoryP":"video","categoryS":"movies","magnet":"?xt=urn:btih:d1557d5c3f32516bcf7db9a7c93961bc2619e1d3&amp;dn=Yoddha+The+Warrior++2014+Punjabi+DVDSCR+Rip+GOPI+SAHI+PDR&amp;tr=udp%3A%2F%2Ftracker.openbittorrent.com%3A80&amp;tr=udp%3A%2F%2Fopen.demonii.com%3A1337&amp;tr=udp%3A%2F%2Ftracker.coppersurfer.tk%3A6969&amp;tr=udp%3A%2F%2Fexodus.desync.com%3A6969","seeders":1,"leechers":1,"uploader":"jatt13","files":1,"time":1415119892,"description":"General\nUnique ID                      : 207721471945309422646035376304997725136 (0x9C45B346482999F5A51EA6D2BBF2F3D0)\nComplete name                  : D:FILMpun2014Yoddha 2014 Punjabi DVDSCR Rip GOPI SAHI PDR.mkv\nFormat                         : Matroska\nFormat version                 : Version 4 / Version 2\nFile size                      : 693 MiB\nDuration                       : 1h 50mn\nOverall bit rate               : 874 Kbps\nMovie name                     : Yoddha [Punjabi] (2014) [1CD] PreDVD Rip Xvid Mp3 GOPI SAHI\nEncoded date                   : UTC 2014-11-03 18:37:39\nWriting application            : mkvmerge v6.5.0 ('Isn't she lovely') built on Oct 20 2013 12:50:05\nWriting library                : libebml v1.3.0 + libmatroska v1.4.1\n\nVideo\nID                             : 1\nFormat                         : MPEG-4 Visual\nFormat profile                 : Advanced Simple@L5\nFormat settings, BVOP          : Yes\nFormat settings, QPel          : No\nFormat settings, GMC           : No warppoints\nFormat settings, Matrix        : Default (H.263)\nCodec ID                       : V_MS/VFW/FOURCC / XVID\nCodec ID/Hint                  : XviD\nDuration                       : 1h 50mn\nBit rate                       : 760 Kbps\nWidth                          : 640 pixels\nHeight                         : 256 pixels\nDisplay aspect ratio           : 2.500\nFrame rate mode                : Constant\nFrame rate                     : 23.976 fps\nColor space                    : YUV\nChroma subsampling             : 4:2:0\nBit depth                      : 8 bits\nScan type                      : Progressive\nCompression mode               : Lossy\nBits/(Pixel*Frame)             : 0.194\nStream size                    : 603 MiB (87%)\nTitle                          : GOPI SAHI\nWriting library                : XviD 1.2.1 (UTC 2008-12-04)\nDefault                        : Yes\nForced                         : No\n\nAudio\nID                             : 2\nFormat                         : MPEG Audio\nFormat version                 : Version 1\nFormat profile                 : Layer 3\nMode                           : Joint stereo\nMode extension                 : MS Stereo\nCodec ID                       : A_MPEG/L3\nCodec ID/Hint                  : MP3\nDuration                       : 1h 50mn\nBit rate mode                  : Constant\nBit rate                       : 96.0 Kbps\nChannel(s)                     : 2 channels\nSampling rate                  : 32.0 KHz\nCompression mode               : Lossy\nStream size                    : 76.2 MiB (11%)\nTitle                          : GOPI SAHI\nWriting library                : LAME3.99r\nEncoding settings              : -m j -V 4 -q 2 -lowpass 15.1 -b 96\nDefault                        : Yes\nForced                         : No\n\nText\nID                             : 3\nFormat                         : UTF-8\nCodec ID                       : S_TEXT/UTF8\nCodec ID/Info                  : UTF-8 Plain Text\nDefault                        : Yes\nForced                         : No\n[IMG]http://imgchicken.com/images/56916246156817974955.jpg[/IMG]\n[IMG]http://imgchicken.com/images/43536487334479896364.jpg[/IMG]\n[IMG]http://imgchicken.com/images/35550658755406372652.jpg[/IMG]\n[IMG]http://imgchicken.com/images/27109314786521879843.jpg[/IMG]","torrent":{"xt":"urn:btih:d1557d5c3f32516bcf7db9a7c93961bc2619e1d3","amp;dn":"Yoddha+The+Warrior++2014+Punjabi+DVDSCR+Rip+GOPI+SAHI+PDR","amp;tr":["udp%3A%2F%2Ftracker.openbittorrent.com%3A80","udp%3A%2F%2Fopen.demonii.com%3A1337","udp%3A%2F%2Ftracker.coppersurfer.tk%3A6969","udp%3A%2F%2Fexodus.desync.com%3A6969"],"infoHash":"d1557d5c3f32516bcf7db9a7c93961bc2619e1d3","infoHashBuffer":{"type":"Buffer","data":[209,85,125,92,63,50,81,107,207,125,185,167,201,57,97,188,38,25,225,211]},"announce":[],"urlList":[]}}